# xmcd
#
# Track frame offsets:
# 150
# 17852
# 39869
# 56822
# 74883
# 89691
# 105883
# 126461
# 144511
# 161966
# 180331
# 196276
# 212024
# 234356
# 250399
#
# Disc length: 3602 seconds
#
#
# Revision: 0
# Processed by: cddbd v1.5.1PL0 Copyright (c) Steve Scherf et al.
# Submitted via: FreeRIP 2.90 
#
DISCID=db0e100f
DTITLE=Sergio e Junior - Sergio e Junior
DYEAR=2004
DGENRE=Sertanejo
TTITLE0=Por Onde Andei
TTITLE1=De Onde Você Vai Surgir
TTITLE2=Na Boca Do Povo
TTITLE3=Tô Te Filmando
TTITLE4=É Impossível Te Amar
TTITLE5=A Única
TTITLE6=Complicações Do Amor
TTITLE7=Vem Me Amar
TTITLE8=Juliana
TTITLE9=Quando Um Só Quer Amar
TTITLE10=Pele, Alma e Coração
TTITLE11=Meu anjo
TTITLE12=Exemplo das Paixões
TTITLE13=É Nosso Amor
TTITLE14=Incêndio No Canavial
EXTD=
EXTT0=
EXTT1=
EXTT2=
EXTT3=
EXTT4=
EXTT5=
EXTT6=
EXTT7=
EXTT8=
EXTT9=
EXTT10=
EXTT11=
EXTT12=
EXTT13=
EXTT14=
PLAYORDER=
